<svg xmlns="http://www.w3.org/2000/svg" width="3600" height="2300" viewBox="0 0 3600 2300"><defs><style>
.bg { fill: #fff; }
.line { stroke: #111; stroke-width: 3; fill: none; }
.entity, .attribute, .relation { fill: #fff; stroke: #111; stroke-width: 3; }
.text { font-family: SimSun, "Microsoft YaHei", sans-serif; fill: #111; text-anchor: middle; dominant-baseline: middle; }
.entity-text { font-size: 42px; }
.relation-text { font-size: 36px; }
.attr-text { font-size: 31px; }
.card { font-family: "Times New Roman", SimSun, serif; font-size: 40px; font-weight: 700; fill: #111; }
</style></defs><rect class="bg" x="0" y="0" width="3600" height="2300"/><text class="text entity-text" x="1800" y="90">实验室资源预约系统 E-R 图</text><g><line class="line" x1="520" y1="1150" x2="1250" y2="1150"/><text class="text card" x="885" y="1132">M</text><line class="line" x1="1250" y1="1150" x2="2000" y2="1150"/><text class="text card" x="1625" y="1132">N</text><line class="line" x1="2000" y1="1150" x2="2600" y2="1150"/><text class="text card" x="2300" y="1132">N</text><line class="line" x1="2600" y1="1150" x2="3120" y2="1150"/><text class="text card" x="2860" y="1132">1</text><line class="line" x1="3120" y1="1150" x2="3120" y2="760"/><text class="text card" x="3120" y="937">N</text><line class="line" x1="3120" y1="760" x2="3120" y2="430"/><text class="text card" x="3120" y="577">1</text><line class="line" x1="280" y1="860" x2="520" y2="1150"/><line class="line" x1="210" y1="1360" x2="520" y2="1150"/><line class="line" x1="500" y1="1530" x2="520" y2="1150"/><line class="line" x1="810" y1="1360" x2="520" y2="1150"/><line class="line" x1="1070" y1="860" x2="1250" y2="1150"/><line class="line" x1="1430" y1="860" x2="1250" y2="1150"/><line class="line" x1="1780" y1="860" x2="2000" y2="1150"/><line class="line" x1="2140" y1="800" x2="2000" y2="1150"/><line class="line" x1="2350" y1="960" x2="2000" y2="1150"/><line class="line" x1="2000" y1="1470" x2="2000" y2="1150"/><line class="line" x1="2900" y1="860" x2="3120" y2="1150"/><line class="line" x1="3360" y1="860" x2="3120" y2="1150"/><line class="line" x1="2900" y1="1440" x2="3120" y2="1150"/><line class="line" x1="3360" y1="1440" x2="3120" y2="1150"/><line class="line" x1="2870" y1="190" x2="3120" y2="430"/><line class="line" x1="3370" y1="190" x2="3120" y2="430"/></g><g><rect class="entity" x="395" y="1100" width="250" height="100"/><text class="text entity-text" x="520" y="1150">用户</text><polygon class="relation" points="1250,1085 1355,1150 1250,1215 1145,1150"/><text class="text relation-text" x="1250" y="1150">预约</text><rect class="entity" x="1850" y="1100" width="300" height="100"/><text class="text entity-text" x="2000" y="1150">预约时段</text><polygon class="relation" points="2600,1090 2695,1150 2600,1210 2505,1150"/><text class="text relation-text" x="2600" y="1150">提供</text><rect class="entity" x="2995" y="1100" width="250" height="100"/><text class="text entity-text" x="3120" y="1150">资源</text><polygon class="relation" points="3120,700 3215,760 3120,820 3025,760"/><text class="text relation-text" x="3120" y="760">归类</text><rect class="entity" x="2970" y="380" width="300" height="100"/><text class="text entity-text" x="3120" y="430">资源类型</text><ellipse class="attribute" cx="280" cy="860" rx="130" ry="48"/><text class="text attr-text" x="280" y="860">用户编号</text><ellipse class="attribute" cx="210" cy="1360" rx="115" ry="48"/><text class="text attr-text" x="210" y="1360">用户名</text><ellipse class="attribute" cx="500" cy="1530" rx="115" ry="48"/><text class="text attr-text" x="500" y="1530">手机号</text><ellipse class="attribute" cx="810" cy="1360" rx="105" ry="48"/><text class="text attr-text" x="810" y="1360">角色</text><ellipse class="attribute" cx="1070" cy="860" rx="130" ry="48"/><text class="text attr-text" x="1070" y="860">提交时间</text><ellipse class="attribute" cx="1430" cy="860" rx="130" ry="48"/><text class="text attr-text" x="1430" y="860">预约状态</text><ellipse class="attribute" cx="1780" cy="860" rx="130" ry="48"/><text class="text attr-text" x="1780" y="860">时段编号</text><ellipse class="attribute" cx="2140" cy="800" rx="130" ry="48"/><text class="text attr-text" x="2140" y="800">开始时间</text><ellipse class="attribute" cx="2350" cy="960" rx="130" ry="48"/><text class="text attr-text" x="2350" y="960">结束时间</text><ellipse class="attribute" cx="2000" cy="1470" rx="115" ry="48"/><text class="text attr-text" x="2000" y="1470">总名额</text><ellipse class="attribute" cx="2900" cy="860" rx="130" ry="48"/><text class="text attr-text" x="2900" y="860">资源编号</text><ellipse class="attribute" cx="3360" cy="860" rx="130" ry="48"/><text class="text attr-text" x="3360" y="860">资源名称</text><ellipse class="attribute" cx="2900" cy="1440" rx="130" ry="48"/><text class="text attr-text" x="2900" y="1440">资源状态</text><ellipse class="attribute" cx="3360" cy="1440" rx="130" ry="48"/><text class="text attr-text" x="3360" y="1440">资源位置</text><ellipse class="attribute" cx="2870" cy="190" rx="130" ry="48"/><text class="text attr-text" x="2870" y="190">类型编号</text><ellipse class="attribute" cx="3370" cy="190" rx="130" ry="48"/><text class="text attr-text" x="3370" y="190">类型名称</text></g></svg>
